<svg width="54" height="54" viewBox="0 0 54 54" version="1.1" xmlns="http://www.w3.org/2000/svg"><title>play</title><g id="Home" stroke="none" stroke-width="1" fill="none" fill-rule="evenodd"><g transform="translate(-485 -151)" id="Promo"><g id="play" transform="translate(485 151)"><path d="M27 54C12.088 54 0 41.912 0 27S12.088 0 27 0s27 12.088 27 27-12.088 27-27 27z" id="Path" fill="#B23615"/><path d="M27 50c12.703 0 23-10.297 23-23S39.703 4 27 4 4 14.297 4 27s10.297 23 23 23zm0 2C13.193 52 2 40.807 2 27S13.193 2 27 2s25 11.193 25 25-11.193 25-25 25z" id="Shape" fill="#FFF"/><path d="M35 27L21 37s3-6.43 3-9.645C24 23.904 21 17 21 17l14 10z" id="Path" fill="#FFF"/></g></g></g></svg>