<svg width="29" height="29" viewBox="0 0 29 29" version="1.1" xmlns="http://www.w3.org/2000/svg"><title>play-small</title><g id="Watch" stroke="none" stroke-width="1" fill="none" fill-rule="evenodd"><g id="Previous-Series"><g id="Series"><g id="Sermon"><g id="play-small"><path d="M14.5 29C6.492 29 0 22.508 0 14.5S6.492 0 14.5 0 29 6.492 29 14.5 22.508 29 14.5 29z" id="Path" fill="#B23615"/><path d="M14.5 25C20.3 25 25 20.3 25 14.5S20.3 4 14.5 4 4 8.7 4 14.5 8.7 25 14.5 25zm0 2C7.596 27 2 21.404 2 14.5S7.596 2 14.5 2 27 7.596 27 14.5 21.404 27 14.5 27z" id="Shape" fill="#FFF"/><path d="M18.5 14.5l-7 5s1.5-3.215 1.5-4.822c0-1.726-1.5-5.178-1.5-5.178l7 5z" id="Path" fill="#FFF"/></g></g></g></g></g></svg>