<svg width="29" height="29" viewBox="0 0 29 29" version="1.1" xmlns="http://www.w3.org/2000/svg" xmlns:xlink="http://www.w3.org/1999/xlink"><title>podcast-small</title><defs><path id="path-1" d="M0 0h17v11H0z"/></defs><g id="Watch" stroke="none" stroke-width="1" fill="none" fill-rule="evenodd"><g id="Previous-Series" transform="translate(-133 -648)"><g id="Series" transform="translate(32 139)"><g id="Sermon" transform="translate(15 508)"><g id="podcast-small" transform="translate(86 1)"><path d="M14.5 29C6.492 29 0 22.508 0 14.5S6.492 0 14.5 0 29 6.492 29 14.5 22.508 29 14.5 29z" id="Path" fill="#B23615"/><path d="M14.5 25C20.299 25 25 20.299 25 14.5S20.299 4 14.5 4 4 8.701 4 14.5 8.701 25 14.5 25zm0 2C7.596 27 2 21.404 2 14.5S7.596 2 14.5 2 27 7.596 27 14.5 21.404 27 14.5 27z" id="Shape" fill="#FFF"/><g id="Headphones" transform="translate(6 6)"><rect id="Rectangle-65" fill="#FFF" x="1.789" y="7" width="4" height="7" rx="2"/><rect id="Rectangle-65-Copy" fill="#FFF" x="11.2" y="7" width="4" height="7" rx="2"/><g id="Band"><mask id="mask-2" fill="#fff"><use xlink:href="#path-1"/></mask><rect id="Rectangle-67" stroke="#FFF" stroke-width="2" mask="url(#mask-2)" x="1.789" y="1" width="13.421" height="20" rx="8"/></g></g></g></g></g></g></g></svg>