<svg width="17" height="17" viewBox="0 0 17 17" version="1.1" xmlns="http://www.w3.org/2000/svg"><title>red-social-google-plus</title><g id="Watch" stroke="none" stroke-width="1" fill="none" fill-rule="evenodd"><g id="Previous-Series" transform="translate(-558 -524)" fill="#B23615"><g id="Series" transform="translate(32 139)"><g id="Social" transform="translate(526 384)"><path d="M16.391 8.307H14.34V6.256h-1.65v2.051h-2.05v1.651h2.05v2.05h1.65v-2.05h2.051V8.307zm-7.664 2.485c-.476-.338-1.386-1.158-1.386-1.639 0-.565.162-.843 1.011-1.508.871-.681 1.488-1.638 1.488-2.751 0-1.325-.59-2.616-1.698-3.043h1.67L10.991 1H5.723C3.362 1 1.14 2.789 1.14 4.861c0 2.118 1.61 3.828 4.012 3.828.167 0 .329-.004.488-.015-.156.298-.268.635-.268.983 0 .589.317 1.067.717 1.457-.302 0-.595.009-.912.009C2.252 11.123 0 12.985 0 14.918c0 1.902 2.468 3.092 5.393 3.092 3.334 0 5.176-1.892 5.176-3.795 0-1.526-.45-2.44-1.842-3.423zm-2.813-2.64c-1.357-.041-2.647-1.519-2.881-3.301-.235-1.782.676-3.146 2.033-3.106 1.356.041 2.646 1.47 2.88 3.253.234 1.782-.675 3.195-2.032 3.154zm-.532 9.017c-2.022 0-3.482-1.28-3.482-2.818 0-1.507 1.812-2.762 3.833-2.739.472.005.912.081 1.311.21 1.097.764 1.884 1.194 2.106 2.064.042.177.065.358.065.543 0 1.538-.99 2.74-3.833 2.74z" id="red-social-google-plus"/></g></g></g></g></svg>