<svg width="17" height="14" viewBox="0 0 17 14" version="1.1" xmlns="http://www.w3.org/2000/svg"><title>red-social-twitter</title><g id="Watch" stroke="none" stroke-width="1" fill="none" fill-rule="evenodd"><g id="Previous-Series" transform="translate(-637 -525)" fill="#B23615"><g id="Series" transform="translate(32 139)"><g id="Social" transform="translate(526 384)"><path d="M96.037 3.639c-.626.279-1.3.466-2.007.551a3.505 3.505 0 0 0 1.537-1.933c-.676.4-1.423.69-2.221.846a3.496 3.496 0 0 0-5.955 3.189 9.921 9.921 0 0 1-7.205-3.654 3.497 3.497 0 0 0-.473 1.76c0 1.211.617 2.282 1.555 2.909a3.485 3.485 0 0 1-1.584-.436v.043a3.498 3.498 0 0 0 2.805 3.428 3.479 3.479 0 0 1-1.579.061 3.499 3.499 0 0 0 3.265 2.427 7.017 7.017 0 0 1-4.341 1.496c-.282 0-.561-.016-.834-.048a9.902 9.902 0 0 0 5.358 1.57c6.43 0 9.945-5.326 9.945-9.947 0-.151-.003-.303-.009-.452a7.059 7.059 0 0 0 1.743-1.81" id="red-social-twitter"/></g></g></g></g></svg>