<svg width="17" height="14" viewBox="0 0 17 14" version="1.1" xmlns="http://www.w3.org/2000/svg"><title>red-social-twitter</title><g id="Watch" stroke="none" stroke-width="1" fill="none" fill-rule="evenodd"><g id="Previous-Series" fill="#B23615"><g id="Series"><g id="Social"><path d="M17.037 1.64c-.626.278-1.3.465-2.007.55A3.505 3.505 0 0 0 16.567.257c-.676.4-1.423.69-2.22.846a3.496 3.496 0 0 0-5.955 3.19A9.92 9.92 0 0 1 1.185.637c-.3.52-.473 1.12-.473 1.76 0 1.21.617 2.282 1.555 2.91A3.485 3.485 0 0 1 .684 4.87v.044A3.498 3.498 0 0 0 3.49 8.342a3.48 3.48 0 0 1-1.58.06 3.5 3.5 0 0 0 3.265 2.428 7.017 7.017 0 0 1-4.34 1.496A7.17 7.17 0 0 1 0 12.278a9.902 9.902 0 0 0 5.358 1.57c6.43 0 9.945-5.326 9.945-9.947 0-.15-.003-.302-.01-.45a7.06 7.06 0 0 0 1.744-1.81" id="red-social-twitter"/></g></g></g></g></svg>