<svg width="17" height="17" viewBox="0 0 17 17" version="1.1" xmlns="http://www.w3.org/2000/svg"><title>red-social-google-plus</title><g id="Watch" stroke="none" stroke-width="1" fill="none" fill-rule="evenodd"><g id="Previous-Series" fill="#B23615"><g id="Series"><g id="Social"><path d="M16.39 7.307h-2.05v-2.05h-1.65v2.05h-2.05v1.65h2.05v2.05h1.65v-2.05h2.05v-1.65zM8.728 9.792C8.25 9.454 7.34 8.634 7.34 8.152c0-.564.163-.842 1.012-1.507.87-.68 1.488-1.638 1.488-2.75 0-1.326-.59-2.617-1.698-3.044h1.67l1.18-.85H5.72C3.363 0 1.14 1.79 1.14 3.86c0 2.12 1.61 3.83 4.012 3.83.167 0 .33-.005.488-.016-.156.298-.268.635-.268.983 0 .59.317 1.067.717 1.457-.303 0-.596.01-.913.01-2.925 0-5.177 1.86-5.177 3.794 0 1.902 2.468 3.092 5.393 3.092 3.334 0 5.176-1.892 5.176-3.795 0-1.526-.45-2.44-1.843-3.423zm-2.813-2.64c-1.357-.04-2.647-1.52-2.88-3.3C2.797 2.068 3.708.704 5.065.744c1.356.04 2.646 1.47 2.88 3.253.234 1.782-.675 3.195-2.032 3.154zm-.532 9.017c-2.022 0-3.482-1.28-3.482-2.82 0-1.506 1.812-2.76 3.833-2.738.472.005.912.08 1.31.21 1.098.764 1.885 1.194 2.107 2.064.042.177.065.358.065.543 0 1.537-.99 2.74-3.833 2.74z" id="red-social-google-plus"/></g></g></g></g></svg>