<svg width="17" height="18" viewBox="0 0 17 18" version="1.1" xmlns="http://www.w3.org/2000/svg"><title>social-google-plus</title><g id="Home" stroke="none" stroke-width="1" fill="none" fill-rule="evenodd"><g transform="translate(-816 -38)" id="footer" fill="#FFF"><g id="Social" transform="translate(816 37.493)"><g id="social-google-plus" transform="translate(0 1.013)"><path d="M16.391 7.404H14.34V5.326h-1.65v2.078h-2.05v1.673h2.05v2.078h1.65V9.077h2.051V7.404zM8.727 9.923c-.476-.343-1.386-1.174-1.386-1.661 0-.573.162-.855 1.011-1.528.871-.69 1.488-1.66 1.488-2.788 0-1.343-.59-2.651-1.698-3.084h1.67L10.991 0H5.723C3.362 0 1.14 1.813 1.14 3.912c0 2.147 1.61 3.88 4.012 3.88.167 0 .329-.005.488-.016-.156.302-.268.644-.268.996 0 .597.317 1.082.717 1.477-.302 0-.595.009-.912.009C2.252 10.258 0 12.145 0 14.104c0 1.927 2.468 3.133 5.393 3.133 3.334 0 5.176-1.917 5.176-3.846 0-1.546-.45-2.472-1.842-3.468zM5.914 7.247c-1.357-.041-2.647-1.539-2.881-3.345C2.798 2.097 3.709.714 5.066.755c1.356.041 2.646 1.49 2.88 3.296.234 1.806-.675 3.238-2.032 3.196zm-.532 9.138c-2.022 0-3.482-1.297-3.482-2.856 0-1.527 1.812-2.799 3.833-2.776.472.006.912.083 1.311.213 1.097.774 1.884 1.21 2.106 2.092.042.18.065.363.065.55 0 1.559-.99 2.777-3.833 2.777z" id="Fill-279"/></g></g></g></g></svg>