<svg width="24" height="16" viewBox="0 0 24 16" version="1.1" xmlns="http://www.w3.org/2000/svg"><title>social-email</title><g id="Watch" stroke="none" stroke-width="1" fill="none" fill-rule="evenodd"><g id="Previous-Series" transform="translate(-766 -803)" fill="#FFF"><g id="footer" transform="translate(0 764)"><g id="Social" transform="translate(766 37.493)"><g id="social-email" transform="translate(0 2)"><path d="M8 8.455l-6.51 6.558h20.558l-6.51-6.558-1.686 1.7-.56.553a2.142 2.142 0 0 1-3.045 0l-.555-.559L8 8.455zM1.38.013h20.778l-7.966 8.032-1.28 1.286a1.606 1.606 0 0 1-2.285 0L9.347 8.04 1.38.013zm22.158 1.384L16.92 8.071l6.62 6.674V1.397zM0 1.397l6.62 6.674L0 14.745V1.397z" id="Envelope"/></g></g></g></g></g></svg>