<svg width="17" height="18" viewBox="0 0 17 18" version="1.1" xmlns="http://www.w3.org/2000/svg"><title>social-google-plus</title><g id="Home" stroke="none" stroke-width="1" fill="none" fill-rule="evenodd"><g id="footer" fill="#FFF"><g id="Social"><g id="social-google-plus"><path d="M16.39 7.91h-2.05V5.834h-1.65V7.91h-2.05v1.674h2.05v2.077h1.65V9.585h2.05V7.91zm-7.663 2.52C8.25 10.086 7.34 9.255 7.34 8.767c0-.572.163-.854 1.012-1.528.87-.69 1.488-1.66 1.488-2.787 0-1.343-.59-2.65-1.698-3.084h1.67l1.18-.863H5.72C3.363.507 1.14 2.32 1.14 4.42c0 2.145 1.61 3.878 4.012 3.878.167 0 .33-.004.488-.015-.156.302-.268.643-.268.996 0 .596.317 1.08.717 1.476-.303 0-.596.01-.913.01C2.252 10.765 0 12.65 0 14.61c0 1.928 2.468 3.133 5.393 3.133 3.334 0 5.176-1.917 5.176-3.845 0-1.546-.45-2.473-1.843-3.47zM5.914 7.753c-1.357-.042-2.647-1.54-2.88-3.345-.236-1.807.675-3.19 2.032-3.148 1.356.04 2.646 1.49 2.88 3.296.234 1.806-.675 3.238-2.032 3.196zm-.532 9.137c-2.022 0-3.482-1.296-3.482-2.854 0-1.527 1.812-2.8 3.833-2.776.472.005.912.082 1.31.213 1.098.774 1.885 1.21 2.107 2.09.042.18.065.364.065.552 0 1.558-.99 2.776-3.833 2.776z" id="Fill-279"/></g></g></g></g></svg>