<svg width="17" height="15" viewBox="0 0 17 15" version="1.1" xmlns="http://www.w3.org/2000/svg"><title>social-twitter</title><g id="Home" stroke="none" stroke-width="1" fill="none" fill-rule="evenodd"><g transform="translate(-895 -39)" id="footer" fill="#FFF"><g id="Social" transform="translate(816 37.493)"><g id="social-twitter" transform="translate(79 2.027)"><path d="M17.037 1.66c-.626.284-1.3.473-2.007.56A3.544 3.544 0 0 0 16.567.26c-.676.406-1.423.7-2.221.858A3.47 3.47 0 0 0 11.795 0C9.866 0 8.301 1.587 8.301 3.543c0 .277.03.547.09.806C5.486 4.2 2.911 2.793 1.186.647A3.58 3.58 0 0 0 .713 2.43c0 1.227.617 2.312 1.555 2.948a3.45 3.45 0 0 1-1.584-.442v.044c0 1.716 1.205 3.148 2.805 3.473a3.435 3.435 0 0 1-1.579.062c.445 1.407 1.735 2.431 3.265 2.46A6.958 6.958 0 0 1 0 12.441a9.808 9.808 0 0 0 5.358 1.59c6.43 0 9.945-5.396 9.945-10.079 0-.153-.003-.307-.009-.458a7.112 7.112 0 0 0 1.743-1.834" id="Fill-275"/></g></g></g></g></svg>