<svg width="18" height="18" viewBox="0 0 18 18" version="1.1" xmlns="http://www.w3.org/2000/svg"><title>social-instagram</title><g id="Home" stroke="none" stroke-width="1" fill="none" fill-rule="evenodd"><g transform="translate(-935 -37)" id="footer" fill="#FFF"><g id="Social" transform="translate(816 37.493)"><g id="social-instagram" transform="translate(119)"><path d="M15.351 13.906c0 .911-.731 1.652-1.63 1.652H3.287c-.899 0-1.63-.741-1.63-1.652V6.85h2.539a4.739 4.739 0 0 0-.342 1.768c0 2.599 2.086 4.714 4.65 4.714 2.564 0 4.65-2.115 4.65-4.714 0-.626-.124-1.222-.342-1.768h2.539v7.056zM6.077 6.85a2.976 2.976 0 0 1 2.427-1.266c.999 0 1.883.501 2.427 1.266.355.499.567 1.108.567 1.768 0 1.673-1.344 3.034-2.994 3.034-1.65 0-2.993-1.36-2.993-3.034 0-.66.212-1.27.566-1.768zm8.587-4.863l.376-.002v2.923l-2.874.008-.01-2.92 2.508-.009zM13.721 0H3.287C1.475 0 0 1.494 0 3.33v10.576c0 1.837 1.475 3.332 3.287 3.332h10.434c1.812 0 3.287-1.495 3.287-3.332V3.331C17.008 1.494 15.533 0 13.721 0z" id="Fill-314"/></g></g></g></g></svg>