<svg width="17" height="15" viewBox="0 0 17 15" version="1.1" xmlns="http://www.w3.org/2000/svg"><title>social-twitter</title><g id="Home" stroke="none" stroke-width="1" fill="none" fill-rule="evenodd"><g id="footer" fill="#FFF"><g id="Social"><g id="social-twitter"><path d="M17.037 2.18c-.626.284-1.3.473-2.007.56A3.544 3.544 0 0 0 16.567.78a6.93 6.93 0 0 1-2.22.858A3.47 3.47 0 0 0 11.794.52C9.865.52 8.3 2.107 8.3 4.063c0 .277.03.547.09.806-2.904-.15-5.48-1.557-7.204-3.703A3.58 3.58 0 0 0 .713 2.95c0 1.227.617 2.312 1.555 2.948a3.45 3.45 0 0 1-1.584-.442V5.5c0 1.716 1.205 3.148 2.805 3.473a3.435 3.435 0 0 1-1.58.062c.445 1.407 1.735 2.43 3.265 2.46A6.958 6.958 0 0 1 0 12.96a9.808 9.808 0 0 0 5.358 1.59c6.43 0 9.945-5.396 9.945-10.08 0-.152-.003-.306-.01-.457a7.112 7.112 0 0 0 1.744-1.834" id="Fill-275"/></g></g></g></g></svg>