<svg width="18" height="18" viewBox="0 0 18 18" version="1.1" xmlns="http://www.w3.org/2000/svg"><title>social-instagram</title><g id="Home" stroke="none" stroke-width="1" fill="none" fill-rule="evenodd"><g id="footer" fill="#FFF"><g id="Social"><g id="social-instagram"><path d="M15.35 14.4c0 .91-.73 1.65-1.63 1.65H3.288c-.9 0-1.63-.74-1.63-1.65V7.342h2.54a4.74 4.74 0 0 0-.343 1.77c0 2.597 2.086 4.713 4.65 4.713 2.564 0 4.65-2.116 4.65-4.714a4.76 4.76 0 0 0-.342-1.77h2.54V14.4zM6.078 7.342a2.976 2.976 0 0 1 2.427-1.265c1 0 1.883.5 2.427 1.265.356.5.568 1.108.568 1.77 0 1.672-1.344 3.033-2.994 3.033-1.65 0-2.993-1.36-2.993-3.034 0-.66.213-1.27.567-1.77zm8.587-4.863l.376-.002V5.4l-2.874.01-.01-2.92 2.508-.01zM13.72.493H3.288C1.475.493 0 1.987 0 3.823V14.4c0 1.836 1.475 3.33 3.287 3.33H13.72c1.813 0 3.288-1.494 3.288-3.33V3.823c0-1.837-1.475-3.33-3.287-3.33z" id="Fill-314"/></g></g></g></g></svg>