<svg width="49" height="49" viewBox="0 0 49 49" version="1.1" xmlns="http://www.w3.org/2000/svg"><title>stamp-1</title><g id="Next-Steps" stroke="none" stroke-width="1" fill="none" fill-rule="evenodd"><g id="1"><g id="stamp-1"><path d="M24.5 49C10.97 49 0 38.03 0 24.5S10.97 0 24.5 0 49 10.97 49 24.5 38.03 49 24.5 49z" id="Path" fill="#B23615"/><path d="M24.5 45C35.822 45 45 35.822 45 24.5S35.822 4 24.5 4 4 13.178 4 24.5 13.178 45 24.5 45zm0 2C12.074 47 2 36.926 2 24.5S12.074 2 24.5 2 47 12.074 47 24.5 36.926 47 24.5 47z" id="Shape" fill="#FFF"/><path d="M21.905 29.002h3.165v-9.104c0-.353.01-.724.032-1.113l-2.246 1.88a.797.797 0 0 1-.287.16c-.098.03-.193.045-.287.045a.848.848 0 0 1-.394-.092.735.735 0 0 1-.266-.21l-.842-1.156 4.763-4.05h2.192v13.64h2.808V31h-8.64v-1.998z" id="1" fill="#FFF"/></g></g></g></svg>