<svg width="49" height="49" viewBox="0 0 49 49" version="1.1" xmlns="http://www.w3.org/2000/svg"><title>stamp-3</title><g id="Next-Steps" stroke="none" stroke-width="1" fill="none" fill-rule="evenodd"><g id="1"><g id="stamp-3"><path d="M24.5 49C10.97 49 0 38.03 0 24.5S10.97 0 24.5 0 49 10.97 49 24.5 38.03 49 24.5 49z" id="Path" fill="#B23615"/><path d="M24.5 45C35.822 45 45 35.822 45 24.5S35.822 4 24.5 4 4 13.178 4 24.5 13.178 45 24.5 45zm0 2C12.074 47 2 36.926 2 24.5S12.074 2 24.5 2 47 12.074 47 24.5 36.926 47 24.5 47z" id="Shape" fill="#FFF"/><path d="M24.75 15.21c.72 0 1.37.103 1.95.308a4.45 4.45 0 0 1 1.484.853c.41.365.726.792.945 1.28.22.49.33 1.02.33 1.59 0 .496-.057.933-.17 1.31a3.054 3.054 0 0 1-.485.99c-.212.28-.47.518-.777.712a4.716 4.716 0 0 1-1.042.486c.936.295 1.634.745 2.095 1.35.462.605.692 1.364.692 2.28 0 .776-.144 1.464-.432 2.062a4.432 4.432 0 0 1-1.166 1.506 5.083 5.083 0 0 1-1.7.924 6.6 6.6 0 0 1-2.048.313c-.785 0-1.47-.09-2.052-.27a4.455 4.455 0 0 1-1.523-.8 4.826 4.826 0 0 1-1.1-1.295 8.746 8.746 0 0 1-.778-1.772l1.177-.486a1.55 1.55 0 0 1 .615-.13c.187 0 .354.04.502.12.148.08.26.194.34.345.13.252.272.5.427.745.155.245.34.463.556.654.216.19.47.345.76.464.293.12.64.178 1.044.178.453 0 .85-.073 1.188-.22.338-.15.62-.34.847-.58a2.37 2.37 0 0 0 .507-.793c.112-.29.167-.585.167-.88 0-.374-.04-.714-.118-1.02a1.513 1.513 0 0 0-.497-.783c-.253-.216-.615-.386-1.087-.508-.47-.122-1.103-.184-1.895-.184v-1.9c.655-.008 1.2-.07 1.63-.184.433-.115.777-.275 1.032-.48.256-.206.434-.452.535-.74.1-.288.15-.605.15-.95 0-.742-.2-1.302-.604-1.68-.402-.378-.953-.567-1.65-.567-.635 0-1.16.167-1.578.502-.418.334-.71.764-.875 1.29-.086.273-.205.47-.356.588-.15.12-.348.178-.593.178-.115 0-.238-.01-.367-.032l-1.404-.248c.108-.75.316-1.406.626-1.97a4.726 4.726 0 0 1 1.16-1.416 4.81 4.81 0 0 1 1.6-.853c.6-.19 1.247-.287 1.938-.287z" id="3" fill="#FFF"/></g></g></g></svg>