<svg width="49" height="49" viewBox="0 0 49 49" version="1.1" xmlns="http://www.w3.org/2000/svg"><title>stamp-3</title><g id="Next-Steps" stroke="none" stroke-width="1" fill="none" fill-rule="evenodd"><g transform="translate(-92 -328)" id="1"><g id="stamp-3" transform="translate(92 328)"><path d="M24.5 49C10.969 49 0 38.031 0 24.5S10.969 0 24.5 0 49 10.969 49 24.5 38.031 49 24.5 49z" id="Path" fill="#B23615"/><path d="M24.5 45C35.822 45 45 35.822 45 24.5S35.822 4 24.5 4 4 13.178 4 24.5 13.178 45 24.5 45zm0 2C12.074 47 2 36.926 2 24.5S12.074 2 24.5 2 47 12.074 47 24.5 36.926 47 24.5 47z" id="Shape" fill="#FFF"/><path d="M24.75 15.21c.72 0 1.37.103 1.95.308a4.45 4.45 0 0 1 1.484.853c.41.364.726.79.945 1.28.22.49.33 1.019.33 1.588 0 .497-.056.934-.168 1.312a3.054 3.054 0 0 1-.486.988c-.212.281-.471.519-.777.713a4.716 4.716 0 0 1-1.042.486c.936.295 1.634.745 2.095 1.35.46.605.691 1.364.691 2.279 0 .777-.144 1.465-.432 2.063a4.432 4.432 0 0 1-1.166 1.506 5.083 5.083 0 0 1-1.701.924 6.599 6.599 0 0 1-2.047.313c-.785 0-1.469-.09-2.052-.27a4.455 4.455 0 0 1-1.523-.8 4.826 4.826 0 0 1-1.101-1.295 8.746 8.746 0 0 1-.778-1.772l1.177-.486a1.55 1.55 0 0 1 .616-.13c.187 0 .354.04.502.12.148.079.261.194.34.345.13.252.272.5.427.745.155.245.34.463.556.654.216.19.47.345.761.464.292.119.64.178 1.043.178.453 0 .85-.073 1.188-.221a2.58 2.58 0 0 0 .847-.578 2.37 2.37 0 0 0 .508-.794c.112-.291.167-.585.167-.88 0-.374-.04-.714-.118-1.02a1.513 1.513 0 0 0-.497-.783c-.252-.216-.614-.386-1.086-.508-.471-.122-1.103-.184-1.895-.184v-1.9c.655-.008 1.199-.069 1.63-.184.433-.115.777-.275 1.032-.48.256-.206.434-.452.535-.74.1-.288.151-.605.151-.95 0-.742-.202-1.302-.605-1.68-.403-.378-.954-.567-1.652-.567-.634 0-1.16.167-1.577.502-.418.335-.71.765-.875 1.29-.086.274-.205.47-.356.59-.151.118-.35.177-.594.177-.115 0-.238-.01-.367-.032l-1.404-.248c.108-.75.316-1.406.626-1.971a4.726 4.726 0 0 1 1.161-1.415 4.809 4.809 0 0 1 1.598-.853 6.374 6.374 0 0 1 1.939-.287z" id="3" fill="#FFF"/></g></g></g></svg>