<svg width="49" height="49" viewBox="0 0 49 49" version="1.1" xmlns="http://www.w3.org/2000/svg"><title>stamp-4</title><g id="Next-Steps" stroke="none" stroke-width="1" fill="none" fill-rule="evenodd"><g id="1"><g id="stamp-4"><path d="M24.5 49C10.97 49 0 38.03 0 24.5S10.97 0 24.5 0 49 10.97 49 24.5 38.03 49 24.5 49z" id="Path" fill="#B23615"/><path d="M24.5 45C35.822 45 45 35.822 45 24.5S35.822 4 24.5 4 4 13.178 4 24.5 13.178 45 24.5 45zm0 2C12.074 47 2 36.926 2 24.5S12.074 2 24.5 2 47 12.074 47 24.5 36.926 47 24.5 47z" id="Shape" fill="#FFF"/><path d="M28.174 25.114h1.965v1.544a.54.54 0 0 1-.14.373c-.095.105-.232.158-.412.158h-1.414V31H25.84v-3.812h-6.587a.73.73 0 0 1-.475-.168.723.723 0 0 1-.26-.416l-.27-1.35 7.398-9.882h2.528v9.742zm-2.333-5.108c0-.23.008-.48.022-.746.015-.266.04-.543.076-.83l-4.85 6.684h4.753v-5.108z" id="4" fill="#FFF"/></g></g></g></svg>