<svg width="49" height="49" viewBox="0 0 49 49" version="1.1" xmlns="http://www.w3.org/2000/svg"><title>stamp-2</title><g id="Next-Steps" stroke="none" stroke-width="1" fill="none" fill-rule="evenodd"><g id="1"><g id="stamp-2"><path d="M24.5 49C10.97 49 0 38.03 0 24.5S10.97 0 24.5 0 49 10.97 49 24.5 38.03 49 24.5 49z" id="Path" fill="#B23615"/><path d="M24.5 45C35.822 45 45 35.822 45 24.5S35.822 4 24.5 4 4 13.178 4 24.5 13.178 45 24.5 45zm0 2C12.074 47 2 36.926 2 24.5S12.074 2 24.5 2 47 12.074 47 24.5 36.926 47 24.5 47z" id="Shape" fill="#FFF"/><path d="M25.502 15.21c.72 0 1.378.107 1.976.32.598.21 1.11.512 1.534.9.424.39.756.858.993 1.405.238.547.357 1.155.357 1.825 0 .576-.085 1.11-.254 1.598-.17.49-.396.958-.68 1.404a9.453 9.453 0 0 1-1 1.296c-.38.418-.78.843-1.198 1.275l-3.52 3.596a8.53 8.53 0 0 1 1.014-.233c.33-.054.648-.08.95-.08h4.007c.29 0 .518.08.687.242.17.16.254.375.254.642V31H19.908v-.886a1.567 1.567 0 0 1 .475-1.102l4.743-4.75c.396-.404.75-.79 1.063-1.157.314-.367.576-.73.79-1.09.21-.36.373-.726.485-1.097.11-.37.167-.76.167-1.172 0-.374-.055-.703-.163-.988a1.936 1.936 0 0 0-.464-.718 1.95 1.95 0 0 0-.718-.437 2.81 2.81 0 0 0-.935-.146c-.64 0-1.168.162-1.582.486-.414.324-.704.76-.87 1.307-.078.273-.197.47-.356.588-.158.12-.36.178-.604.178a2.18 2.18 0 0 1-.357-.032l-1.403-.248c.108-.75.317-1.406.627-1.97a4.726 4.726 0 0 1 1.16-1.416 4.81 4.81 0 0 1 1.6-.853c.6-.19 1.246-.287 1.938-.287z" id="2" fill="#FFF"/></g></g></g></svg>