<svg width="49" height="49" viewBox="0 0 49 49" version="1.1" xmlns="http://www.w3.org/2000/svg"><title>stamp-2</title><g id="Next-Steps" stroke="none" stroke-width="1" fill="none" fill-rule="evenodd"><g transform="translate(-91 -328)" id="1"><g id="stamp-2" transform="translate(91 328)"><path d="M24.5 49C10.969 49 0 38.031 0 24.5S10.969 0 24.5 0 49 10.969 49 24.5 38.031 49 24.5 49z" id="Path" fill="#B23615"/><path d="M24.5 45C35.822 45 45 35.822 45 24.5S35.822 4 24.5 4 4 13.178 4 24.5 13.178 45 24.5 45zm0 2C12.074 47 2 36.926 2 24.5S12.074 2 24.5 2 47 12.074 47 24.5 36.926 47 24.5 47z" id="Shape" fill="#FFF"/><path d="M25.502 15.21c.72 0 1.378.107 1.976.319a4.445 4.445 0 0 1 1.534.902c.424.389.756.857.993 1.404.238.547.357 1.155.357 1.825 0 .576-.085 1.109-.254 1.598-.17.49-.396.958-.68 1.404a9.453 9.453 0 0 1-1 1.296c-.381.418-.78.843-1.198 1.275l-3.521 3.596a8.53 8.53 0 0 1 1.015-.232 5.91 5.91 0 0 1 .95-.081h4.007c.288 0 .517.081.686.243.17.162.254.376.254.643V31H19.907v-.886a1.567 1.567 0 0 1 .475-1.102l4.742-4.751c.396-.403.75-.789 1.063-1.156.314-.367.576-.73.789-1.09.212-.36.374-.726.486-1.097.111-.37.167-.761.167-1.172 0-.374-.054-.703-.162-.988a1.936 1.936 0 0 0-.464-.718 1.95 1.95 0 0 0-.718-.437 2.811 2.811 0 0 0-.935-.146c-.64 0-1.168.162-1.582.486-.414.324-.704.76-.87 1.307-.078.273-.197.47-.356.588-.158.119-.36.178-.604.178-.108 0-.227-.01-.357-.032l-1.404-.248c.108-.75.317-1.406.627-1.971a4.726 4.726 0 0 1 1.16-1.415 4.809 4.809 0 0 1 1.599-.853 6.374 6.374 0 0 1 1.939-.287z" id="2" fill="#FFF"/></g></g></g></svg>