<svg width="49" height="49" viewBox="0 0 49 49" version="1.1" xmlns="http://www.w3.org/2000/svg"><title>stamp-4</title><g id="Next-Steps" stroke="none" stroke-width="1" fill="none" fill-rule="evenodd"><g transform="translate(-92 -328)" id="1"><g id="stamp-4" transform="translate(92 328)"><path d="M24.5 49C10.969 49 0 38.031 0 24.5S10.969 0 24.5 0 49 10.969 49 24.5 38.031 49 24.5 49z" id="Path" fill="#B23615"/><path d="M24.5 45C35.822 45 45 35.822 45 24.5S35.822 4 24.5 4 4 13.178 4 24.5 13.178 45 24.5 45zm0 2C12.074 47 2 36.926 2 24.5S12.074 2 24.5 2 47 12.074 47 24.5 36.926 47 24.5 47z" id="Shape" fill="#FFF"/><path d="M28.174 25.114h1.965v1.544a.54.54 0 0 1-.14.373c-.094.104-.23.157-.41.157h-1.415V31H25.84v-3.812h-6.588a.73.73 0 0 1-.475-.168.723.723 0 0 1-.26-.416l-.27-1.35 7.398-9.882h2.528v9.742zm-2.333-5.108c0-.23.007-.48.021-.746.015-.266.04-.543.076-.831l-4.85 6.685h4.753v-5.108z" id="4" fill="#FFF"/></g></g></g></svg>