<?xml version="1.0" encoding="UTF-8" standalone="no"?>
<svg width="29px" height="29px" viewBox="0 0 29 29" version="1.1" xmlns="http://www.w3.org/2000/svg" xmlns:xlink="http://www.w3.org/1999/xlink" xmlns:sketch="http://www.bohemiancoding.com/sketch/ns">
    <!-- Generator: Sketch 3.4.4 (17249) - http://www.bohemiancoding.com/sketch -->
    <title>play-small</title>
    <desc>Created with Sketch.</desc>
    <defs></defs>
    <g id="Watch" stroke="none" stroke-width="1" fill="none" fill-rule="evenodd" sketch:type="MSPage">
        <g id="Previous-Series" sketch:type="MSArtboardGroup" transform="translate(-93.000000, -648.000000)">
            <g id="Series" sketch:type="MSLayerGroup" transform="translate(32.000000, 139.000000)">
                <g id="Sermon" transform="translate(15.000000, 508.000000)" sketch:type="MSShapeGroup">
                    <g id="play-small" transform="translate(46.000000, 1.000000)">
                        <path d="M14.5,29 L14.5,29 C6.49187113,29 0,22.5081289 0,14.5 C0,6.49187113 6.49187113,0 14.5,0 C22.5081289,0 29,6.49187113 29,14.5 C29,22.5081289 22.5081289,29 14.5,29 L14.5,29 Z" id="Path" fill="#B23615"></path>
                        <path d="M14.5,25 L14.5,25 C20.2989899,25 25,20.2989899 25,14.5 C25,8.70101013 20.2989899,4 14.5,4 C8.70101013,4 4,8.70101013 4,14.5 C4,20.2989899 8.70101013,25 14.5,25 L14.5,25 Z M14.5,27 L14.5,27 C7.59644063,27 2,21.4035594 2,14.5 C2,7.59644063 7.59644063,2 14.5,2 C21.4035594,2 27,7.59644063 27,14.5 C27,21.4035594 21.4035594,27 14.5,27 L14.5,27 Z" id="Shape" fill="#FFFFFF"></path>
                        <path d="M18.5,14.5 L11.5,19.5 C11.5,19.5 13,16.2851562 13,14.6777344 C13,12.9518229 11.5,9.5 11.5,9.5 L18.5,14.5 Z" id="Path" fill="#FFFFFF"></path>
                    </g>
                </g>
            </g>
        </g>
    </g>
</svg>