<?xml version="1.0" encoding="UTF-8" standalone="no"?>
<svg width="17px" height="17px" viewBox="0 0 17 17" version="1.1" xmlns="http://www.w3.org/2000/svg" xmlns:xlink="http://www.w3.org/1999/xlink" xmlns:sketch="http://www.bohemiancoding.com/sketch/ns">
    <!-- Generator: Sketch 3.5.1 (25234) - http://www.bohemiancoding.com/sketch -->
    <title>red-social-google-plus</title>
    <desc>Created with Sketch.</desc>
    <defs></defs>
    <g id="Watch" stroke="none" stroke-width="1" fill="none" fill-rule="evenodd" sketch:type="MSPage">
        <g id="Previous-Series" sketch:type="MSArtboardGroup" transform="translate(-558.000000, -524.000000)" fill="#B23615">
            <g id="Series" sketch:type="MSLayerGroup" transform="translate(32.000000, 139.000000)">
                <g id="Social" transform="translate(526.000000, 384.000000)" sketch:type="MSShapeGroup">
                    <path d="M16.391,8.307 L14.34,8.307 L14.34,6.256 L12.69,6.256 L12.69,8.307 L10.64,8.307 L10.64,9.958 L12.69,9.958 L12.69,12.008 L14.34,12.008 L14.34,9.958 L16.391,9.958 L16.391,8.307 L16.391,8.307 Z M8.727,10.792 C8.251,10.454 7.341,9.634 7.341,9.153 C7.341,8.588 7.503,8.31 8.352,7.645 C9.223,6.964 9.84,6.007 9.84,4.894 C9.84,3.569 9.25,2.278 8.142,1.851 L9.812,1.851 L10.991,1 L5.723,1 C3.362,1 1.14,2.789 1.14,4.861 C1.14,6.979 2.75,8.689 5.152,8.689 C5.319,8.689 5.481,8.685 5.64,8.674 C5.484,8.972 5.372,9.309 5.372,9.657 C5.372,10.246 5.689,10.724 6.089,11.114 C5.787,11.114 5.494,11.123 5.177,11.123 C2.252,11.123 0,12.985 0,14.918 C0,16.82 2.468,18.01 5.393,18.01 C8.727,18.01 10.569,16.118 10.569,14.215 C10.569,12.689 10.119,11.775 8.727,10.792 L8.727,10.792 Z M5.914,8.152 C4.557,8.111 3.267,6.633 3.033,4.851 C2.798,3.069 3.709,1.705 5.066,1.745 C6.422,1.786 7.712,3.215 7.946,4.998 C8.18,6.78 7.271,8.193 5.914,8.152 L5.914,8.152 Z M5.382,17.169 C3.36,17.169 1.9,15.889 1.9,14.351 C1.9,12.844 3.712,11.589 5.733,11.612 C6.205,11.617 6.645,11.693 7.044,11.822 C8.141,12.586 8.928,13.016 9.15,13.886 C9.192,14.063 9.215,14.244 9.215,14.429 C9.215,15.967 8.225,17.169 5.382,17.169 L5.382,17.169 Z" id="red-social-google-plus"></path>
                </g>
            </g>
        </g>
    </g>
</svg>