<?xml version="1.0" encoding="UTF-8" standalone="no"?>
<svg width="17px" height="14px" viewBox="0 0 17 14" version="1.1" xmlns="http://www.w3.org/2000/svg" xmlns:xlink="http://www.w3.org/1999/xlink" xmlns:sketch="http://www.bohemiancoding.com/sketch/ns">
    <!-- Generator: Sketch 3.5.1 (25234) - http://www.bohemiancoding.com/sketch -->
    <title>red-social-twitter</title>
    <desc>Created with Sketch.</desc>
    <defs></defs>
    <g id="Watch" stroke="none" stroke-width="1" fill="none" fill-rule="evenodd" sketch:type="MSPage">
        <g id="Previous-Series" sketch:type="MSArtboardGroup" transform="translate(-637.000000, -525.000000)" fill="#B23615">
            <g id="Series" sketch:type="MSLayerGroup" transform="translate(32.000000, 139.000000)">
                <g id="Social" transform="translate(526.000000, 384.000000)" sketch:type="MSShapeGroup">
                    <path d="M96.037,3.639 C95.411,3.918 94.737,4.105 94.03,4.19 C94.752,3.758 95.306,3.072 95.567,2.257 C94.891,2.657 94.144,2.947 93.346,3.103 C92.71,2.425 91.801,2 90.795,2 C88.866,2 87.301,3.566 87.301,5.496 C87.301,5.77 87.331,6.036 87.391,6.292 C84.486,6.145 81.911,4.756 80.186,2.638 C79.885,3.157 79.713,3.758 79.713,4.398 C79.713,5.609 80.33,6.68 81.268,7.307 C80.696,7.29 80.156,7.132 79.684,6.871 L79.684,6.914 C79.684,8.608 80.889,10.021 82.489,10.342 C82.196,10.424 81.887,10.465 81.568,10.465 C81.343,10.465 81.123,10.444 80.91,10.403 C81.355,11.791 82.645,12.802 84.175,12.83 C82.979,13.767 81.471,14.326 79.834,14.326 C79.552,14.326 79.273,14.31 79,14.278 C80.547,15.269 82.385,15.848 84.358,15.848 C90.788,15.848 94.303,10.522 94.303,5.901 C94.303,5.75 94.3,5.598 94.294,5.449 C94.977,4.956 95.57,4.341 96.037,3.639" id="red-social-twitter"></path>
                </g>
            </g>
        </g>
    </g>
</svg>