<?xml version="1.0" encoding="UTF-8" standalone="no"?>
<svg width="9px" height="18px" viewBox="0 0 9 18" version="1.1" xmlns="http://www.w3.org/2000/svg" xmlns:xlink="http://www.w3.org/1999/xlink" xmlns:sketch="http://www.bohemiancoding.com/sketch/ns">
    <!-- Generator: Sketch 3.5.1 (25234) - http://www.bohemiancoding.com/sketch -->
    <title>red-social-facebook</title>
    <desc>Created with Sketch.</desc>
    <defs></defs>
    <g id="Watch" stroke="none" stroke-width="1" fill="none" fill-rule="evenodd" sketch:type="MSPage">
        <g id="Previous-Series" sketch:type="MSArtboardGroup" transform="translate(-602.000000, -523.000000)" fill="#B23615">
            <g id="Series" sketch:type="MSLayerGroup" transform="translate(32.000000, 139.000000)">
                <g id="Social" transform="translate(526.000000, 384.000000)" sketch:type="MSShapeGroup">
                    <path d="M44,5.626 L45.759,5.626 L45.759,3.917 C45.759,3.163 45.778,2.001 46.325,1.281 C46.902,0.518 47.693,0 49.055,0 C51.273,0 52.207,0.316 52.207,0.316 L51.768,2.921 C51.768,2.921 51.035,2.71 50.351,2.71 C49.667,2.71 49.055,2.955 49.055,3.638 L49.055,5.626 L51.859,5.626 L51.663,8.17 L49.055,8.17 L49.055,17.011 L45.759,17.011 L45.759,8.17 L44,8.17 L44,5.626" id="red-social-facebook"></path>
                </g>
            </g>
        </g>
    </g>
</svg>