<?xml version="1.0" encoding="UTF-8" standalone="no"?>
<svg width="18px" height="18px" viewBox="0 0 18 18" version="1.1" xmlns="http://www.w3.org/2000/svg" xmlns:xlink="http://www.w3.org/1999/xlink" xmlns:sketch="http://www.bohemiancoding.com/sketch/ns">
    <!-- Generator: Sketch 3.4.3 (16044) - http://www.bohemiancoding.com/sketch -->
    <title>social-instagram</title>
    <desc>Created with Sketch.</desc>
    <defs></defs>
    <g id="Home" stroke="none" stroke-width="1" fill="none" fill-rule="evenodd" sketch:type="MSPage">
        <g sketch:type="MSArtboardGroup" transform="translate(-935.000000, -1448.000000)" id="footer" fill="#FFFFFF">
            <g sketch:type="MSLayerGroup" transform="translate(0.000000, 1411.000000)">
                <g id="Social" transform="translate(816.000000, 37.493333)" sketch:type="MSShapeGroup">
                    <g id="social-instagram" transform="translate(119.000000, 0.000000)">
                        <path d="M15.351,13.9059733 C15.351,14.81696 14.62,15.5577067 13.721,15.5577067 L3.287,15.5577067 C2.388,15.5577067 1.657,14.81696 1.657,13.9059733 L1.657,6.85013333 L4.196,6.85013333 C3.977,7.39632 3.854,7.99216 3.854,8.6184 C3.854,11.2165867 5.94,13.3324267 8.504,13.3324267 C11.068,13.3324267 13.154,11.2165867 13.154,8.6184 C13.154,7.99216 13.03,7.39632 12.812,6.85013333 L15.351,6.85013333 L15.351,13.9059733 L15.351,13.9059733 Z M6.077,6.85013333 C6.621,6.08506667 7.505,5.58448 8.504,5.58448 C9.503,5.58448 10.387,6.08506667 10.931,6.85013333 C11.286,7.34869333 11.498,7.95770667 11.498,8.6184 C11.498,10.2914133 10.154,11.65232 8.504,11.65232 C6.854,11.65232 5.511,10.2914133 5.511,8.6184 C5.511,7.95770667 5.723,7.34869333 6.077,6.85013333 L6.077,6.85013333 Z M14.664,1.98714667 L15.04,1.98512 L15.04,4.90757333 L12.166,4.91568 L12.156,1.99525333 L14.664,1.98714667 L14.664,1.98714667 Z M13.721,0 L3.287,0 C1.475,0 0,1.49365333 0,3.33082667 L0,13.9059733 C0,15.7431467 1.475,17.2378133 3.287,17.2378133 L13.721,17.2378133 C15.533,17.2378133 17.008,15.7431467 17.008,13.9059733 L17.008,3.33082667 C17.008,1.49365333 15.533,0 13.721,0 L13.721,0 Z" id="Fill-314"></path>
                    </g>
                </g>
            </g>
        </g>
    </g>
</svg>