<?xml version="1.0" encoding="UTF-8" standalone="no"?>
<svg width="17px" height="18px" viewBox="0 0 17 18" version="1.1" xmlns="http://www.w3.org/2000/svg" xmlns:xlink="http://www.w3.org/1999/xlink" xmlns:sketch="http://www.bohemiancoding.com/sketch/ns">
    <!-- Generator: Sketch 3.4.3 (16044) - http://www.bohemiancoding.com/sketch -->
    <title>social-google-plus</title>
    <desc>Created with Sketch.</desc>
    <defs></defs>
    <g id="Home" stroke="none" stroke-width="1" fill="none" fill-rule="evenodd" sketch:type="MSPage">
        <g sketch:type="MSArtboardGroup" transform="translate(-816.000000, -1449.000000)" id="footer" fill="#FFFFFF">
            <g sketch:type="MSLayerGroup" transform="translate(0.000000, 1411.000000)">
                <g id="Social" transform="translate(816.000000, 37.493333)" sketch:type="MSShapeGroup">
                    <g id="social-google-plus" transform="translate(0.000000, 1.013333)">
                        <path d="M16.391,7.40442667 L14.34,7.40442667 L14.34,5.32608 L12.69,5.32608 L12.69,7.40442667 L10.64,7.40442667 L10.64,9.07744 L12.69,9.07744 L12.69,11.1547733 L14.34,11.1547733 L14.34,9.07744 L16.391,9.07744 L16.391,7.40442667 L16.391,7.40442667 Z M8.727,9.92256 C8.251,9.58005333 7.341,8.74912 7.341,8.26170667 C7.341,7.68917333 7.503,7.40746667 8.352,6.7336 C9.223,6.04352 9.84,5.07376 9.84,3.94592 C9.84,2.60325333 9.25,1.29504 8.142,0.862346667 L9.812,0.862346667 L10.991,0 L5.723,0 C3.362,0 1.14,1.81285333 1.14,3.91248 C1.14,6.05872 2.75,7.79152 5.152,7.79152 C5.319,7.79152 5.481,7.78746667 5.64,7.77632 C5.484,8.07829333 5.372,8.41978667 5.372,8.77242667 C5.372,9.36928 5.689,9.85365333 6.089,10.2488533 C5.787,10.2488533 5.494,10.2579733 5.177,10.2579733 C2.252,10.2579733 0,12.1448 0,14.1035733 C0,16.0309333 2.468,17.2368 5.393,17.2368 C8.727,17.2368 10.569,15.3195733 10.569,13.3912 C10.569,11.8448533 10.119,10.9186667 8.727,9.92256 L8.727,9.92256 Z M5.914,7.24736 C4.557,7.20581333 3.267,5.70810667 3.033,3.90234667 C2.798,2.09658667 3.709,0.7144 5.066,0.754933333 C6.422,0.79648 7.712,2.24453333 7.946,4.05130667 C8.18,5.85706667 7.271,7.28890667 5.914,7.24736 L5.914,7.24736 Z M5.382,16.3845867 C3.36,16.3845867 1.9,15.08752 1.9,13.5290133 C1.9,12.00192 3.712,10.7301867 5.733,10.7534933 C6.205,10.75856 6.645,10.8355733 7.044,10.9662933 C8.141,11.74048 8.928,12.1762133 9.15,13.0578133 C9.192,13.2371733 9.215,13.4205867 9.215,13.6080533 C9.215,15.16656 8.225,16.3845867 5.382,16.3845867 L5.382,16.3845867 Z" id="Fill-279"></path>
                    </g>
                </g>
            </g>
        </g>
    </g>
</svg>