<?xml version="1.0" encoding="UTF-8" standalone="no"?>
<svg width="49px" height="49px" viewBox="0 0 49 49" version="1.1" xmlns="http://www.w3.org/2000/svg" xmlns:xlink="http://www.w3.org/1999/xlink" xmlns:sketch="http://www.bohemiancoding.com/sketch/ns">
    <!-- Generator: Sketch 3.4.4 (17249) - http://www.bohemiancoding.com/sketch -->
    <title>stamp-3</title>
    <desc>Created with Sketch.</desc>
    <defs></defs>
    <g id="Next-Steps" stroke="none" stroke-width="1" fill="none" fill-rule="evenodd" sketch:type="MSPage">
        <g sketch:type="MSArtboardGroup" transform="translate(-124.000000, -467.000000)" id="1">
            <g sketch:type="MSLayerGroup" transform="translate(32.000000, 139.000000)">
                <g id="stamp-3" transform="translate(92.000000, 328.000000)" sketch:type="MSShapeGroup">
                    <path d="M24.5,49 L24.5,49 C10.9690236,49 0,38.0309764 0,24.5 C0,10.9690236 10.9690236,0 24.5,0 C38.0309764,0 49,10.9690236 49,24.5 C49,38.0309764 38.0309764,49 24.5,49 L24.5,49 Z" id="Path" fill="#B23615"></path>
                    <path d="M24.5,45 L24.5,45 C35.8218374,45 45,35.8218374 45,24.5 C45,13.1781626 35.8218374,4 24.5,4 C13.1781626,4 4,13.1781626 4,24.5 C4,35.8218374 13.1781626,45 24.5,45 L24.5,45 Z M24.5,47 L24.5,47 C12.0735931,47 2,36.9264069 2,24.5 C2,12.0735931 12.0735931,2 24.5,2 C36.9264069,2 47,12.0735931 47,24.5 C47,36.9264069 36.9264069,47 24.5,47 L24.5,47 Z" id="Shape" fill="#FFFFFF"></path>
                    <path d="M24.75,15.2104 C25.4700036,15.2104 26.1197971,15.312999 26.6994,15.5182 C27.2790029,15.723401 27.7739979,16.0077982 28.1844,16.3714 C28.5948021,16.7350018 28.9097989,17.1615976 29.1294,17.6512 C29.3490011,18.1408024 29.4588,18.6699972 29.4588,19.2388 C29.4588,19.7356025 29.4030006,20.1729981 29.2914,20.551 C29.1797994,20.9290019 29.0178011,21.2583986 28.8054,21.5392 C28.5929989,21.8200014 28.3338015,22.057599 28.0278,22.252 C27.7217985,22.446401 27.3744019,22.6083994 26.9856,22.738 C27.9216047,23.0332015 28.6199977,23.483197 29.0808,24.088 C29.5416023,24.692803 29.772,25.4523954 29.772,26.3668 C29.772,27.1444039 29.6280014,27.831997 29.34,28.4296 C29.0519986,29.027203 28.6632024,29.529398 28.1736,29.9362 C27.6839976,30.343002 27.1170032,30.650799 26.4726,30.8596 C25.8281968,31.068401 25.1460036,31.1728 24.426,31.1728 C23.6411961,31.1728 22.9572029,31.0828009 22.374,30.9028 C21.7907971,30.7227991 21.2832022,30.4564018 20.8512,30.1036 C20.4191978,29.7507982 20.0520015,29.3188026 19.7496,28.8076 C19.4471985,28.2963974 19.1880011,27.7060033 18.972,27.0364 L20.1492,26.5504 C20.350801,26.4639996 20.555999,26.4208 20.7648,26.4208 C20.9520009,26.4208 21.1193993,26.4603996 21.267,26.5396 C21.4146007,26.6188004 21.5279996,26.7339992 21.6072,26.8852 C21.7368006,27.1372013 21.8789992,27.3855988 22.0338,27.6304 C22.1886008,27.8752012 22.3739989,28.092999 22.59,28.2838 C22.8060011,28.474601 23.0597985,28.6293994 23.3514,28.7482 C23.6430015,28.8670006 23.990398,28.9264 24.3936,28.9264 C24.8472023,28.9264 25.2431983,28.8526007 25.5816,28.705 C25.9200017,28.5573993 26.2025989,28.3648012 26.4294,28.1272 C26.6562011,27.8895988 26.8253994,27.6250015 26.937,27.3334 C27.0486006,27.0417985 27.1044,26.7484015 27.1044,26.4532 C27.1044,26.0787981 27.0648004,25.7386015 26.9856,25.4326 C26.9063996,25.1265985 26.7408013,24.8656011 26.4888,24.6496 C26.2367987,24.4335989 25.8750024,24.2644006 25.4034,24.142 C24.9317976,24.0195994 24.300004,23.9584 23.508,23.9584 L23.508,22.0576 C24.1632033,22.0504 24.7067978,21.9892006 25.1388,21.874 C25.5708022,21.7587994 25.9145987,21.598601 26.1702,21.3934 C26.4258013,21.188199 26.6039995,20.9416014 26.7048,20.6536 C26.8056005,20.3655986 26.856,20.0488017 26.856,19.7032 C26.856,18.9615963 26.654402,18.4018019 26.2512,18.0238 C25.847998,17.6457981 25.2972035,17.4568 24.5988,17.4568 C23.9651968,17.4568 23.4396021,17.6241983 23.022,17.959 C22.6043979,18.2938017 22.3128008,18.7239974 22.1472,19.2496 C22.0607996,19.5232014 21.9420008,19.7193994 21.7908,19.8382 C21.6395992,19.9570006 21.4416012,20.0164 21.1968,20.0164 C21.0815994,20.0164 20.9592006,20.0056001 20.8296,19.984 L19.4256,19.7356 C19.5336005,18.9867963 19.7423985,18.3298028 20.052,17.7646 C20.3616015,17.1993972 20.7485977,16.7278019 21.213,16.3498 C21.6774023,15.9717981 22.210197,15.687401 22.8114,15.4966 C23.412603,15.305799 24.0587965,15.2104 24.75,15.2104 L24.75,15.2104 Z" id="3" fill="#FFFFFF"></path>
                </g>
            </g>
        </g>
    </g>
</svg>