<?xml version="1.0" encoding="UTF-8" standalone="no"?>
<svg width="49px" height="49px" viewBox="0 0 49 49" version="1.1" xmlns="http://www.w3.org/2000/svg" xmlns:xlink="http://www.w3.org/1999/xlink" xmlns:sketch="http://www.bohemiancoding.com/sketch/ns">
    <!-- Generator: Sketch 3.4.4 (17249) - http://www.bohemiancoding.com/sketch -->
    <title>stamp-2</title>
    <desc>Created with Sketch.</desc>
    <defs></defs>
    <g id="Next-Steps" stroke="none" stroke-width="1" fill="none" fill-rule="evenodd" sketch:type="MSPage">
        <g sketch:type="MSArtboardGroup" transform="translate(-123.000000, -467.000000)" id="1">
            <g sketch:type="MSLayerGroup" transform="translate(32.000000, 139.000000)">
                <g id="stamp-2" transform="translate(91.000000, 328.000000)" sketch:type="MSShapeGroup">
                    <path d="M24.5,49 L24.5,49 C10.9690236,49 0,38.0309764 0,24.5 C0,10.9690236 10.9690236,0 24.5,0 C38.0309764,0 49,10.9690236 49,24.5 C49,38.0309764 38.0309764,49 24.5,49 L24.5,49 Z" id="Path" fill="#B23615"></path>
                    <path d="M24.5,45 L24.5,45 C35.8218374,45 45,35.8218374 45,24.5 C45,13.1781626 35.8218374,4 24.5,4 C13.1781626,4 4,13.1781626 4,24.5 C4,35.8218374 13.1781626,45 24.5,45 L24.5,45 Z M24.5,47 L24.5,47 C12.0735931,47 2,36.9264069 2,24.5 C2,12.0735931 12.0735931,2 24.5,2 C36.9264069,2 47,12.0735931 47,24.5 C47,36.9264069 36.9264069,47 24.5,47 L24.5,47 Z" id="Shape" fill="#FFFFFF"></path>
                    <path d="M25.5016,15.2104 C26.2216036,15.2104 26.880397,15.3165989 27.478,15.529 C28.075603,15.7414011 28.5867979,16.0419981 29.0116,16.4308 C29.4364021,16.8196019 29.7675988,17.2875973 30.0052,17.8348 C30.2428012,18.3820027 30.3616,18.9903967 30.3616,19.66 C30.3616,20.2360029 30.2770008,20.7687976 30.1078,21.2584 C29.9385992,21.7480024 29.7118014,22.2159978 29.4274,22.6624 C29.1429986,23.1088022 28.8100019,23.5407979 28.4284,23.9584 C28.0467981,24.3760021 27.6472021,24.8007978 27.2296,25.2328 L23.7088,28.8292 C24.0544017,28.7283995 24.3927983,28.6510003 24.724,28.597 C25.0552017,28.5429997 25.3719985,28.516 25.6744,28.516 L29.6812,28.516 C29.9692014,28.516 30.1977992,28.5969992 30.367,28.759 C30.5362008,28.9210008 30.6208,29.1351987 30.6208,29.4016 L30.6208,31 L19.9072,31 L19.9072,30.1144 C19.9072,29.9343991 19.9449996,29.747201 20.0206,29.5528 C20.0962004,29.358399 20.2167992,29.1784008 20.3824,29.0128 L25.1236,24.2608 C25.519602,23.857598 25.8741984,23.4724018 26.1874,23.1052 C26.5006016,22.7379982 26.7633989,22.3744018 26.9758,22.0144 C27.1882011,21.6543982 27.3501994,21.2890019 27.4618,20.9182 C27.5734006,20.5473981 27.6292,20.1568021 27.6292,19.7464 C27.6292,19.3719981 27.5752005,19.0426014 27.4672,18.7582 C27.3591995,18.4737986 27.204401,18.234401 27.0028,18.04 C26.801199,17.845599 26.5618014,17.6998005 26.2846,17.6026 C26.0073986,17.5053995 25.6960017,17.4568 25.3504,17.4568 C24.7095968,17.4568 24.1822021,17.6187984 23.7682,17.9428 C23.3541979,18.2668016 23.0644008,18.7023973 22.8988,19.2496 C22.8195996,19.5232014 22.7008008,19.7193994 22.5424,19.8382 C22.3839992,19.9570006 22.1824012,20.0164 21.9376,20.0164 C21.8295995,20.0164 21.7108006,20.0056001 21.5812,19.984 L20.1772,19.7356 C20.2852005,18.9867963 20.4939985,18.3298028 20.8036,17.7646 C21.1132015,17.1993972 21.5001977,16.7278019 21.9646,16.3498 C22.4290023,15.9717981 22.961797,15.687401 23.563,15.4966 C24.164203,15.305799 24.8103965,15.2104 25.5016,15.2104 L25.5016,15.2104 Z" id="2" fill="#FFFFFF"></path>
                </g>
            </g>
        </g>
    </g>
</svg>