<?xml version="1.0" encoding="UTF-8" standalone="no"?>
<svg width="54px" height="54px" viewBox="0 0 54 54" version="1.1" xmlns="http://www.w3.org/2000/svg" xmlns:xlink="http://www.w3.org/1999/xlink" xmlns:sketch="http://www.bohemiancoding.com/sketch/ns">
    <!-- Generator: Sketch 3.4.4 (17249) - http://www.bohemiancoding.com/sketch -->
    <title>play</title>
    <desc>Created with Sketch.</desc>
    <defs></defs>
    <g id="Home" stroke="none" stroke-width="1" fill="none" fill-rule="evenodd" sketch:type="MSPage">
        <g sketch:type="MSArtboardGroup" transform="translate(-485.000000, -201.000000)" id="Promo">
            <g sketch:type="MSLayerGroup" transform="translate(0.000000, 50.000000)">
                <g id="play" transform="translate(485.000000, 151.000000)" sketch:type="MSShapeGroup">
                    <path d="M27,54 L27,54 C12.0883118,54 0,41.9116882 0,27 C0,12.0883118 12.0883118,0 27,0 C41.9116882,0 54,12.0883118 54,27 C54,41.9116882 41.9116882,54 27,54 L27,54 Z" id="Path" fill="#B23615"></path>
                    <path d="M27,50 L27,50 C39.7025492,50 50,39.7025492 50,27 C50,14.2974508 39.7025492,4 27,4 C14.2974508,4 4,14.2974508 4,27 C4,39.7025492 14.2974508,50 27,50 L27,50 Z M27,52 L27,52 C13.1928813,52 2,40.8071187 2,27 C2,13.1928813 13.1928813,2 27,2 C40.8071187,2 52,13.1928813 52,27 C52,40.8071187 40.8071187,52 27,52 L27,52 Z" id="Shape" fill="#FFFFFF"></path>
                    <path d="M35,27 L21,37 C21,37 24,30.5703125 24,27.3554688 C24,23.9036458 21,17 21,17 L35,27 Z" id="Path" fill="#FFFFFF"></path>
                </g>
            </g>
        </g>
    </g>
</svg>