<?xml version="1.0" encoding="UTF-8" standalone="no"?>
<svg width="29px" height="29px" viewBox="0 0 29 29" version="1.1" xmlns="http://www.w3.org/2000/svg" xmlns:xlink="http://www.w3.org/1999/xlink" xmlns:sketch="http://www.bohemiancoding.com/sketch/ns">
    <!-- Generator: Sketch 3.4.4 (17249) - http://www.bohemiancoding.com/sketch -->
    <title>podcast-small</title>
    <desc>Created with Sketch.</desc>
    <defs>
        <rect id="path-1" x="0" y="0" width="17" height="11"></rect>
    </defs>
    <g id="Watch" stroke="none" stroke-width="1" fill="none" fill-rule="evenodd" sketch:type="MSPage">
        <g id="Previous-Series" sketch:type="MSArtboardGroup" transform="translate(-133.000000, -648.000000)">
            <g id="Series" sketch:type="MSLayerGroup" transform="translate(32.000000, 139.000000)">
                <g id="Sermon" transform="translate(15.000000, 508.000000)">
                    <g id="podcast-small" transform="translate(86.000000, 1.000000)">
                        <path d="M14.5,29 L14.5,29 C6.49187113,29 0,22.5081289 0,14.5 C0,6.49187113 6.49187113,0 14.5,0 C22.5081289,0 29,6.49187113 29,14.5 C29,22.5081289 22.5081289,29 14.5,29 L14.5,29 Z" id="Path" fill="#B23615" sketch:type="MSShapeGroup"></path>
                        <path d="M14.5,25 L14.5,25 C20.2989899,25 25,20.2989899 25,14.5 C25,8.70101013 20.2989899,4 14.5,4 C8.70101013,4 4,8.70101013 4,14.5 C4,20.2989899 8.70101013,25 14.5,25 L14.5,25 Z M14.5,27 L14.5,27 C7.59644063,27 2,21.4035594 2,14.5 C2,7.59644063 7.59644063,2 14.5,2 C21.4035594,2 27,7.59644063 27,14.5 C27,21.4035594 21.4035594,27 14.5,27 L14.5,27 Z" id="Shape" fill="#FFFFFF" sketch:type="MSShapeGroup"></path>
                        <g id="Headphones" transform="translate(6.000000, 6.000000)">
                            <rect id="Rectangle-65" fill="#FFFFFF" sketch:type="MSShapeGroup" x="1.78947368" y="7" width="4" height="7" rx="2"></rect>
                            <rect id="Rectangle-65-Copy" fill="#FFFFFF" sketch:type="MSShapeGroup" x="11.1999969" y="7" width="4" height="7" rx="2"></rect>
                            <g id="Band">
                                <mask id="mask-2" sketch:name="Mask" fill="white">
                                    <use xlink:href="#path-1"></use>
                                </mask>
                                <g id="Mask"></g>
                                <rect id="Rectangle-67" stroke="#FFFFFF" stroke-width="2" sketch:type="MSShapeGroup" mask="url(#mask-2)" x="1.78947368" y="1" width="13.4210526" height="20" rx="8"></rect>
                            </g>
                        </g>
                    </g>
                </g>
            </g>
        </g>
    </g>
</svg>