<?xml version="1.0" encoding="UTF-8" standalone="no"?>
<svg width="49px" height="49px" viewBox="0 0 49 49" version="1.1" xmlns="http://www.w3.org/2000/svg" xmlns:xlink="http://www.w3.org/1999/xlink" xmlns:sketch="http://www.bohemiancoding.com/sketch/ns">
    <!-- Generator: Sketch 3.4.4 (17249) - http://www.bohemiancoding.com/sketch -->
    <title>stamp-4</title>
    <desc>Created with Sketch.</desc>
    <defs></defs>
    <g id="Next-Steps" stroke="none" stroke-width="1" fill="none" fill-rule="evenodd" sketch:type="MSPage">
        <g sketch:type="MSArtboardGroup" transform="translate(-124.000000, -467.000000)" id="1">
            <g sketch:type="MSLayerGroup" transform="translate(32.000000, 139.000000)">
                <g id="stamp-4" transform="translate(92.000000, 328.000000)" sketch:type="MSShapeGroup">
                    <path d="M24.5,49 L24.5,49 C10.9690236,49 0,38.0309764 0,24.5 C0,10.9690236 10.9690236,0 24.5,0 C38.0309764,0 49,10.9690236 49,24.5 C49,38.0309764 38.0309764,49 24.5,49 L24.5,49 Z" id="Path" fill="#B23615"></path>
                    <path d="M24.5,45 L24.5,45 C35.8218374,45 45,35.8218374 45,24.5 C45,13.1781626 35.8218374,4 24.5,4 C13.1781626,4 4,13.1781626 4,24.5 C4,35.8218374 13.1781626,45 24.5,45 L24.5,45 Z M24.5,47 L24.5,47 C12.0735931,47 2,36.9264069 2,24.5 C2,12.0735931 12.0735931,2 24.5,2 C36.9264069,2 47,12.0735931 47,24.5 C47,36.9264069 36.9264069,47 24.5,47 L24.5,47 Z" id="Shape" fill="#FFFFFF"></path>
                    <path d="M28.1736,25.114 L30.1392,25.114 L30.1392,26.6584 C30.1392,26.8024007 30.0924005,26.9265995 29.9988,27.031 C29.9051995,27.1354005 29.7684009,27.1876 29.5884,27.1876 L28.1736,27.1876 L28.1736,31 L25.8408,31 L25.8408,27.1876 L19.2528,27.1876 C19.0727991,27.1876 18.9144007,27.1318006 18.7776,27.0202 C18.6407993,26.9085994 18.5544002,26.7700008 18.5184,26.6044 L18.2484,25.2544 L25.6464,15.3724 L28.1736,15.3724 L28.1736,25.114 Z M25.8408,20.0056 C25.8408,19.7751988 25.8479999,19.5268013 25.8624,19.2604 C25.8768001,18.9939987 25.9019998,18.7168014 25.938,18.4288 L21.0888,25.114 L25.8408,25.114 L25.8408,20.0056 Z" id="4" fill="#FFFFFF"></path>
                </g>
            </g>
        </g>
    </g>
</svg>